<svg id="svg" version="1.1" xmlns="http://www.w3.org/2000/svg" xmlns:xlink="http://www.w3.org/1999/xlink" width="400" height="160" viewBox="0, 0, 400,160"><g id="svgg"><path id="path0" d="M0.000 80.000 L 0.000 160.000 200.000 160.000 L 400.000 160.000 400.000 80.000 L 400.000 0.000 200.000 0.000 L 0.000 0.000 0.000 80.000 M147.423 12.871 C 147.473 12.923,150.435 32.246,151.084 36.750 C 151.322 38.400,152.112 43.612,152.839 48.333 C 153.565 53.054,154.533 59.467,154.989 62.583 C 155.445 65.700,156.381 71.887,157.069 76.333 C 157.756 80.779,158.589 86.292,158.919 88.583 C 159.249 90.875,160.157 96.875,160.936 101.917 C 161.716 106.958,162.572 112.621,162.839 114.500 C 163.106 116.379,163.757 120.729,164.287 124.167 L 165.250 130.417 165.378 71.750 C 165.449 39.483,165.543 12.982,165.588 12.859 C 165.715 12.506,192.762 12.689,195.612 13.062 C 207.881 14.664,218.791 22.188,224.767 33.168 C 225.382 34.298,225.404 34.195,225.096 31.638 C 224.599 27.512,222.828 13.754,222.734 13.292 L 222.640 12.833 235.067 12.833 L 247.494 12.833 247.578 13.208 C 247.688 13.700,250.112 31.312,251.083 38.667 C 251.500 41.829,252.250 47.342,252.749 50.917 C 253.597 56.997,254.898 66.580,255.079 68.083 C 255.183 68.949,258.109 90.120,258.396 92.083 C 258.517 92.908,258.659 93.471,258.712 93.333 C 258.815 93.066,260.013 84.533,261.251 75.250 C 261.666 72.133,262.603 65.346,263.332 60.167 C 264.060 54.987,264.924 48.725,265.251 46.250 C 265.579 43.775,266.479 37.250,267.252 31.750 C 268.025 26.250,268.888 19.988,269.168 17.833 C 269.449 15.679,269.721 13.673,269.774 13.375 L 269.870 12.833 304.185 12.833 L 338.500 12.833 338.500 25.083 L 338.500 37.333 327.583 37.333 L 316.667 37.333 316.667 52.500 L 316.667 67.667 327.583 67.667 L 338.500 67.667 338.500 79.917 L 338.500 92.167 327.583 92.167 L 316.667 92.167 316.667 107.499 L 316.667 122.831 327.542 122.874 L 338.417 122.917 338.459 135.042 L 338.502 147.167 315.418 147.167 L 292.333 147.167 292.315 86.875 C 292.304 51.794,292.236 26.895,292.151 27.330 C 292.070 27.740,291.587 30.778,291.076 34.080 C 290.565 37.382,289.592 43.496,288.913 47.667 C 288.234 51.837,287.409 57.012,287.080 59.167 C 286.752 61.321,285.884 66.758,285.152 71.250 C 284.421 75.742,283.410 82.079,282.906 85.333 C 282.402 88.587,281.429 94.700,280.743 98.917 C 280.058 103.133,279.383 107.333,279.243 108.250 C 278.911 110.427,277.445 119.634,276.179 127.500 C 275.626 130.938,274.702 136.750,274.127 140.417 L 273.082 147.083 258.833 147.181 C 250.995 147.235,244.563 147.264,244.537 147.246 C 244.468 147.197,242.998 138.662,241.337 128.667 C 240.522 123.763,238.916 114.162,237.769 107.333 C 236.621 100.504,234.630 88.654,233.345 81.000 C 232.059 73.346,230.908 66.521,230.786 65.833 L 230.564 64.583 230.455 66.750 C 229.946 76.811,223.660 89.278,216.364 94.699 L 215.811 95.109 217.139 99.513 C 217.869 101.935,218.745 104.892,219.084 106.083 C 219.423 107.275,220.212 109.938,220.837 112.000 C 221.462 114.063,222.284 116.837,222.664 118.167 C 223.044 119.496,224.168 123.321,225.162 126.667 C 230.200 143.625,230.987 146.285,231.091 146.709 L 231.203 147.169 219.155 147.126 L 207.106 147.083 206.718 145.667 C 206.505 144.887,205.877 142.487,205.323 140.333 C 204.769 138.179,203.800 134.504,203.170 132.167 C 202.540 129.829,201.639 126.417,201.169 124.583 C 200.698 122.750,199.836 119.487,199.253 117.333 C 198.670 115.179,197.689 111.467,197.074 109.083 C 196.458 106.700,195.842 104.315,195.705 103.783 L 195.454 102.815 194.519 102.930 C 194.004 102.993,192.758 103.166,191.750 103.314 L 189.917 103.583 189.874 125.376 L 189.832 147.168 166.629 147.126 L 143.426 147.083 142.961 143.833 C 142.419 140.045,141.465 133.029,140.990 129.338 C 140.808 127.919,140.600 126.700,140.528 126.628 C 140.456 126.556,136.206 126.517,131.083 126.540 L 121.769 126.583 120.491 135.667 C 119.788 140.662,119.146 145.275,119.065 145.917 L 118.917 147.083 95.292 147.126 L 71.667 147.168 71.652 115.459 L 71.638 83.750 70.333 91.417 C 69.615 95.633,68.160 104.221,67.099 110.500 C 66.038 116.779,64.722 124.542,64.175 127.750 C 63.628 130.958,62.728 136.283,62.175 139.583 C 61.622 142.883,61.111 145.921,61.039 146.333 L 60.908 147.083 54.382 147.127 C 48.274 147.168,47.851 147.152,47.769 146.877 C 47.668 146.537,45.728 135.351,45.088 131.417 C 44.850 129.950,44.135 125.787,43.500 122.167 C 42.865 118.546,41.744 112.021,41.009 107.667 C 40.274 103.313,39.188 96.975,38.596 93.583 C 38.004 90.192,37.372 86.554,37.194 85.500 L 36.868 83.583 36.851 115.375 L 36.833 147.167 24.583 147.167 L 12.333 147.167 12.333 80.000 L 12.333 12.833 27.839 12.833 C 40.099 12.833,43.357 12.877,43.405 13.042 C 43.487 13.320,46.126 30.029,47.163 36.833 C 47.617 39.813,48.512 45.512,49.152 49.500 C 49.792 53.487,50.625 58.813,51.004 61.333 C 51.886 67.208,54.133 81.188,54.207 81.263 C 54.275 81.330,56.178 69.853,57.263 62.833 C 57.682 60.129,58.546 54.767,59.184 50.917 C 59.822 47.067,60.644 41.967,61.011 39.583 C 61.378 37.200,62.421 30.712,63.328 25.167 C 64.235 19.621,65.026 14.708,65.086 14.250 C 65.146 13.792,65.231 13.285,65.275 13.125 C 65.351 12.850,66.239 12.833,80.928 12.833 L 96.500 12.833 96.541 73.792 L 96.583 134.750 97.049 131.500 C 97.304 129.712,98.259 123.375,99.169 117.417 C 100.079 111.458,101.085 104.783,101.403 102.583 C 101.721 100.383,102.582 94.683,103.316 89.917 C 104.050 85.150,104.922 79.375,105.253 77.083 C 105.584 74.792,106.484 68.829,107.253 63.833 C 108.022 58.837,108.922 52.875,109.253 50.583 C 109.584 48.292,110.483 42.329,111.252 37.333 C 112.020 32.337,112.918 26.375,113.249 24.083 C 114.027 18.683,114.809 13.524,114.927 13.014 L 115.020 12.612 131.200 12.719 C 140.099 12.777,147.400 12.846,147.423 12.871 M366.959 67.792 L 367.000 122.833 377.334 122.833 L 387.667 122.833 387.667 135.000 L 387.667 147.167 365.167 147.167 L 342.667 147.167 342.667 80.028 C 342.667 43.101,342.717 12.838,342.779 12.777 C 342.841 12.715,348.297 12.684,354.904 12.707 L 366.917 12.750 366.959 67.792 M189.833 58.397 C 189.833 78.861,189.849 80.000,190.125 79.999 C 198.840 79.961,206.010 70.214,205.999 58.418 C 205.986 45.668,200.549 37.893,190.958 36.910 L 189.833 36.795 189.833 58.397 M130.939 51.219 C 130.771 52.794,130.153 58.133,129.564 63.083 C 128.403 72.852,127.321 82.121,126.500 89.333 C 126.214 91.854,125.684 96.380,125.323 99.391 C 124.962 102.402,124.667 104.934,124.667 105.016 C 124.667 105.103,127.520 105.167,131.424 105.167 L 138.182 105.167 138.097 104.625 C 137.961 103.755,137.699 101.584,137.085 96.250 C 136.768 93.500,135.949 86.712,135.264 81.167 C 134.580 75.621,133.822 69.396,133.581 67.333 C 132.834 60.948,131.310 48.421,131.276 48.387 C 131.258 48.369,131.106 49.644,130.939 51.219 " stroke="none" fill="#f4141c" fill-rule="evenodd"></path><path id="path1" d="M12.333 79.917 L 12.333 147.000 24.500 147.000 L 36.667 147.000 36.678 114.708 C 36.684 96.077,36.751 82.558,36.835 82.750 C 36.978 83.076,38.641 92.521,39.345 97.000 C 39.539 98.237,40.332 102.850,41.107 107.250 C 41.882 111.650,42.885 117.500,43.335 120.250 C 43.786 123.000,44.789 128.850,45.564 133.250 C 46.339 137.650,47.177 142.544,47.427 144.125 L 47.880 147.000 54.315 147.000 L 60.750 147.000 61.540 142.292 C 61.974 139.702,62.845 134.583,63.475 130.917 C 64.106 127.250,64.825 122.975,65.074 121.417 C 65.323 119.858,66.188 114.758,66.997 110.083 C 67.805 105.408,68.629 100.533,68.829 99.250 C 69.391 95.637,71.499 83.477,71.660 82.917 C 71.741 82.632,71.810 96.324,71.818 114.708 L 71.833 147.000 95.307 147.000 L 118.781 147.000 119.562 141.458 C 119.991 138.410,120.450 135.054,120.582 134.000 C 120.864 131.733,121.299 128.421,121.467 127.250 L 121.587 126.417 131.124 126.374 L 140.660 126.331 140.745 126.707 C 140.850 127.167,142.860 141.524,143.265 144.708 L 143.557 147.000 166.612 147.000 L 189.667 147.000 189.667 125.263 L 189.667 103.526 190.125 103.432 C 193.337 102.771,195.667 102.616,195.667 103.063 C 195.667 103.196,196.337 105.767,197.155 108.777 C 197.974 111.787,198.954 115.487,199.332 117.000 C 199.711 118.513,200.611 121.925,201.332 124.583 C 202.054 127.242,202.983 130.767,203.397 132.417 C 203.812 134.067,204.788 137.757,205.567 140.618 C 206.345 143.478,207.032 146.085,207.093 146.409 L 207.204 147.000 219.120 147.000 C 228.584 147.000,231.019 146.957,230.956 146.792 C 230.793 146.365,229.501 141.994,228.775 139.417 C 228.362 137.950,227.451 134.875,226.751 132.583 C 226.051 130.292,225.188 127.367,224.833 126.083 C 224.477 124.800,223.692 122.138,223.088 120.167 C 222.483 118.196,221.573 115.121,221.064 113.333 C 220.556 111.546,219.647 108.471,219.045 106.500 C 218.443 104.529,217.441 101.154,216.818 99.000 L 215.686 95.083 216.635 94.254 C 225.375 86.609,230.842 74.452,230.241 64.000 C 230.070 61.021,230.383 61.927,231.076 66.417 C 231.765 70.876,231.810 71.149,233.571 81.333 C 234.260 85.321,235.050 90.046,235.327 91.833 C 235.603 93.621,236.503 98.983,237.326 103.750 C 238.149 108.517,239.049 113.879,239.327 115.667 C 239.604 117.454,240.427 122.367,241.154 126.583 C 241.882 130.800,242.707 135.675,242.987 137.417 C 243.267 139.158,243.737 142.065,244.032 143.875 L 244.569 147.167 251.993 147.144 C 256.076 147.131,262.454 147.075,266.167 147.019 L 272.917 146.917 272.969 146.500 C 272.998 146.271,273.801 141.283,274.754 135.417 C 275.707 129.550,276.674 123.475,276.902 121.917 C 277.131 120.358,278.028 114.733,278.896 109.417 C 279.764 104.100,280.746 97.950,281.079 95.750 C 281.412 93.550,282.283 88.112,283.014 83.667 C 283.745 79.221,284.532 74.271,284.764 72.667 C 284.995 71.063,285.820 65.887,286.598 61.167 C 287.375 56.446,288.311 50.596,288.677 48.167 C 289.699 41.393,292.166 26.302,292.329 25.833 C 292.411 25.596,292.479 51.536,292.487 86.208 L 292.500 147.000 315.417 147.000 L 338.333 147.000 338.333 135.085 L 338.333 123.169 327.458 123.126 L 316.583 123.083 316.541 107.625 L 316.498 92.167 327.416 92.167 L 338.333 92.167 338.333 79.917 L 338.333 67.667 327.416 67.667 L 316.498 67.667 316.541 52.458 L 316.583 37.250 327.458 37.207 L 338.333 37.164 338.333 24.999 L 338.333 12.833 304.194 12.833 L 270.055 12.833 268.782 21.875 C 268.082 26.848,267.352 32.154,267.161 33.667 C 266.970 35.179,266.109 41.404,265.248 47.500 C 264.387 53.596,263.487 60.121,263.249 62.000 C 263.011 63.879,262.141 70.179,261.315 76.000 C 260.490 81.821,259.595 88.302,259.328 90.404 C 259.061 92.505,258.766 94.301,258.671 94.395 C 258.577 94.490,258.500 94.530,258.500 94.484 C 258.500 94.439,258.241 92.530,257.925 90.243 C 257.608 87.955,257.155 84.546,256.917 82.667 C 256.680 80.787,255.816 74.450,254.998 68.583 C 254.179 62.717,253.317 56.417,253.080 54.583 C 252.418 49.446,251.790 44.825,250.518 35.750 C 249.876 31.167,249.047 25.054,248.676 22.167 C 248.306 19.279,247.875 15.998,247.718 14.875 L 247.433 12.833 235.166 12.833 L 222.900 12.833 223.108 14.542 C 223.223 15.481,223.400 17.000,223.501 17.917 C 223.764 20.296,225.487 33.677,225.588 34.125 C 225.750 34.841,225.251 34.511,224.832 33.625 C 221.113 25.762,211.594 17.651,202.814 14.862 C 197.016 13.021,196.350 12.963,179.792 12.879 L 165.667 12.807 165.667 28.695 C 165.667 62.978,165.438 131.838,165.325 131.714 C 165.259 131.642,165.043 130.383,164.844 128.917 C 164.645 127.450,163.814 121.938,162.998 116.667 C 162.181 111.396,161.207 104.946,160.833 102.333 C 160.458 99.721,159.597 94.021,158.918 89.667 C 158.239 85.313,157.338 79.350,156.916 76.417 C 156.494 73.483,155.520 67.033,154.751 62.083 C 153.982 57.133,153.155 51.658,152.913 49.917 C 152.672 48.175,151.921 43.188,151.246 38.833 C 150.570 34.479,149.709 28.817,149.332 26.250 C 148.189 18.458,147.666 14.968,147.478 13.875 L 147.299 12.833 131.236 12.833 L 115.173 12.833 115.092 13.208 C 114.939 13.922,112.293 31.278,111.326 37.917 C 110.791 41.583,109.789 48.221,109.099 52.667 C 108.409 57.112,107.577 62.625,107.251 64.917 C 106.925 67.208,105.954 73.658,105.094 79.250 C 104.234 84.842,103.481 89.792,103.422 90.250 C 103.210 91.879,102.132 99.030,100.921 106.833 C 100.245 111.188,99.495 116.175,99.253 117.917 C 98.587 122.714,96.513 136.043,96.417 136.138 C 96.371 136.184,96.333 108.460,96.333 74.528 L 96.333 12.833 80.920 12.833 L 65.506 12.833 65.425 13.208 C 65.277 13.886,63.691 23.696,63.330 26.167 C 63.136 27.496,62.267 32.896,61.400 38.167 C 60.533 43.438,59.598 49.250,59.323 51.083 C 59.047 52.917,58.078 58.954,57.169 64.500 C 56.260 70.046,55.286 76.121,55.005 78.000 C 54.186 83.464,54.211 83.500,52.991 75.083 C 52.712 73.158,51.779 67.196,50.918 61.833 C 50.057 56.471,49.081 50.246,48.749 48.000 C 48.418 45.754,47.667 40.954,47.082 37.333 C 46.496 33.712,45.792 29.287,45.517 27.500 C 44.289 19.537,43.620 15.162,43.458 14.042 L 43.282 12.833 27.808 12.833 L 12.333 12.833 12.333 79.917 M342.833 79.917 L 342.833 147.000 365.250 147.000 L 387.667 147.000 387.667 135.083 L 387.667 123.167 377.514 123.167 C 371.929 123.167,367.242 123.121,367.097 123.066 C 366.857 122.974,366.833 117.958,366.833 67.899 L 366.833 12.833 354.833 12.833 L 342.833 12.833 342.833 79.917 M193.221 37.098 C 199.769 38.456,204.370 44.135,205.771 52.588 C 208.103 66.664,200.677 80.000,190.507 80.000 L 189.667 80.000 189.667 58.444 C 189.667 46.589,189.723 36.832,189.792 36.763 C 189.945 36.609,191.683 36.779,193.221 37.098 M133.234 62.917 C 134.209 70.892,135.191 79.067,135.416 81.083 C 135.642 83.100,136.392 89.309,137.085 94.882 C 137.778 100.455,138.300 105.086,138.246 105.174 C 138.185 105.271,135.490 105.333,131.312 105.333 L 124.476 105.333 124.573 104.458 C 125.164 99.095,125.585 95.465,126.996 83.583 C 127.900 75.975,128.762 68.587,128.913 67.167 C 129.217 64.296,130.936 49.677,131.108 48.501 C 131.296 47.209,131.402 47.930,133.234 62.917 " stroke="none" fill="#fcfbfb" fill-rule="evenodd"></path><path id="path2" d="M366.916 67.833 C 366.916 98.129,366.935 110.523,366.958 95.375 C 366.982 80.227,366.982 55.440,366.958 40.292 C 366.935 25.144,366.916 37.538,366.916 67.833 M292.311 25.958 C 292.277 26.119,292.288 53.438,292.334 86.667 L 292.417 147.083 292.459 86.375 C 292.481 52.985,292.471 25.667,292.436 25.667 C 292.401 25.667,292.345 25.798,292.311 25.958 M189.748 58.417 C 189.748 70.333,189.767 75.184,189.792 69.195 C 189.816 63.207,189.816 53.457,189.792 47.529 C 189.767 41.600,189.748 46.500,189.748 58.417 M206.042 57.417 C 206.044 57.783,206.078 57.914,206.118 57.706 C 206.158 57.499,206.156 57.199,206.115 57.040 C 206.073 56.880,206.040 57.050,206.042 57.417 M206.048 59.417 C 206.049 59.875,206.081 60.043,206.120 59.789 C 206.158 59.536,206.157 59.161,206.117 58.956 C 206.078 58.751,206.046 58.958,206.048 59.417 M36.669 83.292 C 36.671 83.625,36.712 83.686,36.820 83.515 C 36.902 83.386,36.931 83.180,36.883 83.057 C 36.748 82.704,36.666 82.794,36.669 83.292 M218.577 92.542 L 217.750 93.417 218.625 92.590 C 219.106 92.135,219.500 91.741,219.500 91.715 C 219.500 91.590,219.346 91.729,218.577 92.542 M189.748 125.417 C 189.748 137.425,189.767 142.313,189.792 136.279 C 189.816 130.244,189.816 120.419,189.792 114.445 C 189.767 108.471,189.748 113.408,189.748 125.417 M354.055 147.125 C 360.272 147.149,370.397 147.149,376.555 147.125 C 382.712 147.101,377.625 147.081,365.250 147.081 C 352.875 147.081,347.837 147.101,354.055 147.125 " stroke="none" fill="#fc9a9f" fill-rule="evenodd"></path><path id="path3" d="M165.582 43.250 C 165.582 60.025,165.601 66.863,165.625 58.445 C 165.649 50.027,165.649 36.302,165.625 27.945 C 165.601 19.588,165.582 26.475,165.582 43.250 M191.794 12.951 C 192.001 12.991,192.301 12.990,192.460 12.948 C 192.620 12.906,192.450 12.874,192.083 12.875 C 191.717 12.877,191.586 12.911,191.794 12.951 M338.374 24.957 L 338.333 37.164 327.458 37.207 L 316.583 37.250 316.582 52.500 L 316.581 67.750 316.625 52.542 L 316.668 37.333 327.506 37.333 C 336.023 37.333,338.361 37.289,338.423 37.125 C 338.467 37.010,338.483 31.479,338.459 24.833 L 338.414 12.750 338.374 24.957 M342.749 79.917 C 342.749 116.858,342.768 131.946,342.792 113.445 C 342.815 94.944,342.815 64.719,342.792 46.278 C 342.768 27.838,342.749 42.975,342.749 79.917 M217.500 23.917 C 217.998 24.421,218.443 24.833,218.489 24.833 C 218.534 24.833,218.165 24.421,217.667 23.917 C 217.169 23.412,216.724 23.000,216.678 23.000 C 216.632 23.000,217.002 23.412,217.500 23.917 M190.127 36.785 C 190.334 36.824,190.634 36.823,190.794 36.781 C 190.953 36.739,190.783 36.707,190.417 36.709 C 190.050 36.711,189.920 36.745,190.127 36.785 M206.045 56.167 C 206.045 56.579,206.078 56.748,206.118 56.542 C 206.157 56.335,206.157 55.998,206.118 55.792 C 206.078 55.585,206.045 55.754,206.045 56.167 M206.039 60.667 C 206.039 60.987,206.073 61.119,206.115 60.958 C 206.157 60.798,206.157 60.535,206.115 60.375 C 206.073 60.215,206.039 60.346,206.039 60.667 M230.204 63.189 L 230.215 64.250 230.373 63.357 C 230.478 62.767,230.474 62.407,230.362 62.296 C 230.249 62.182,230.197 62.473,230.204 63.189 M230.205 67.333 C 230.205 67.654,230.240 67.785,230.282 67.625 C 230.323 67.465,230.323 67.202,230.282 67.042 C 230.240 66.881,230.205 67.012,230.205 67.333 M338.412 79.917 C 338.412 86.700,338.433 89.451,338.458 86.029 C 338.483 82.608,338.483 77.058,338.458 73.696 C 338.433 70.334,338.412 73.133,338.412 79.917 M316.582 107.625 L 316.583 123.083 327.458 123.126 L 338.333 123.169 338.333 135.084 L 338.333 146.999 315.375 147.042 L 292.417 147.085 315.417 147.084 L 338.417 147.083 338.417 135.083 L 338.417 123.083 327.543 123.040 L 316.668 122.998 316.625 107.582 L 316.581 92.167 316.582 107.625 M138.186 104.706 L 138.167 105.163 131.292 105.208 L 124.417 105.254 131.297 105.294 C 138.638 105.336,138.491 105.352,138.283 104.551 C 138.232 104.353,138.199 104.407,138.186 104.706 M372.304 123.125 C 375.175 123.151,379.825 123.150,382.637 123.125 C 385.449 123.099,383.100 123.078,377.417 123.078 C 371.733 123.078,369.432 123.099,372.304 123.125 M121.558 126.591 C 121.503 126.732,121.506 126.894,121.563 126.952 C 121.620 127.009,121.667 126.931,121.667 126.779 C 121.667 126.525,122.451 126.499,131.208 126.458 L 140.750 126.414 131.203 126.374 C 122.728 126.338,121.645 126.362,121.558 126.591 M165.178 131.282 C 165.172 131.483,165.242 131.693,165.333 131.750 C 165.530 131.872,165.530 131.709,165.333 131.250 C 165.195 130.929,165.190 130.930,165.178 131.282 M266.917 147.000 L 260.917 147.090 266.865 147.128 C 270.693 147.153,272.850 147.107,272.917 147.000 C 272.973 146.908,272.996 146.851,272.968 146.872 C 272.940 146.893,270.217 146.951,266.917 147.000 M18.375 147.125 C 21.744 147.150,27.256 147.150,30.625 147.125 C 33.994 147.100,31.238 147.079,24.500 147.079 C 17.762 147.079,15.006 147.100,18.375 147.125 M50.947 147.125 C 52.706 147.152,55.631 147.152,57.447 147.125 C 59.264 147.098,57.825 147.076,54.250 147.076 C 50.675 147.076,49.189 147.098,50.947 147.125 M83.555 147.125 C 90.047 147.149,100.622 147.149,107.055 147.125 C 113.487 147.101,108.175 147.081,95.250 147.081 C 82.325 147.081,77.062 147.101,83.555 147.125 M155.125 147.125 C 161.473 147.149,171.860 147.149,178.208 147.125 C 184.556 147.101,179.362 147.081,166.667 147.081 C 153.971 147.081,148.777 147.101,155.125 147.125 M213.137 147.125 C 216.467 147.150,221.867 147.150,225.137 147.125 C 228.408 147.100,225.683 147.079,219.083 147.079 C 212.483 147.079,209.808 147.100,213.137 147.125 " stroke="none" fill="#fcc9ca" fill-rule="evenodd"></path><path id="path4" d="M120.542 12.792 C 123.635 12.817,128.698 12.817,131.792 12.792 C 134.885 12.766,132.354 12.745,126.167 12.745 C 119.979 12.745,117.448 12.766,120.542 12.792 M171.792 12.792 C 175.206 12.817,180.794 12.817,184.208 12.792 C 187.623 12.766,184.829 12.746,178.000 12.746 C 171.171 12.746,168.377 12.766,171.792 12.792 M348.792 12.792 C 352.115 12.817,357.552 12.817,360.875 12.792 C 364.198 12.766,361.479 12.746,354.833 12.746 C 348.188 12.746,345.469 12.766,348.792 12.792 M96.392 74.333 C 96.378 108.204,96.416 135.692,96.475 135.417 C 96.535 135.142,96.546 107.429,96.500 73.833 L 96.416 12.750 96.392 74.333 M217.500 23.750 C 217.811 24.071,218.103 24.333,218.149 24.333 C 218.195 24.333,217.978 24.071,217.667 23.750 C 217.356 23.429,217.064 23.167,217.018 23.167 C 216.972 23.167,217.189 23.429,217.500 23.750 M205.881 55.417 C 205.882 55.875,205.915 56.043,205.953 55.789 C 205.991 55.536,205.990 55.161,205.951 54.956 C 205.911 54.751,205.880 54.958,205.881 55.417 M165.293 94.292 C 165.269 114.344,165.301 130.900,165.364 131.083 C 165.427 131.267,165.484 114.860,165.489 94.625 C 165.495 74.390,165.463 57.833,165.418 57.833 C 165.373 57.833,165.316 74.240,165.293 94.292 M205.875 61.083 C 205.877 61.450,205.911 61.580,205.951 61.373 C 205.991 61.166,205.990 60.866,205.948 60.706 C 205.906 60.547,205.874 60.717,205.875 61.083 M230.372 65.667 L 230.389 67.750 230.496 66.000 C 230.555 65.037,230.548 64.100,230.479 63.917 C 230.411 63.733,230.362 64.521,230.372 65.667 M230.205 68.833 C 230.205 69.154,230.240 69.285,230.282 69.125 C 230.323 68.965,230.323 68.702,230.282 68.542 C 230.240 68.381,230.205 68.512,230.205 68.833 M199.240 76.042 L 198.750 76.583 199.292 76.094 C 199.797 75.638,199.910 75.500,199.781 75.500 C 199.752 75.500,199.509 75.744,199.240 76.042 M54.012 81.115 C 54.005 81.316,54.075 81.527,54.167 81.583 C 54.364 81.705,54.364 81.542,54.167 81.083 C 54.029 80.762,54.023 80.763,54.012 81.115 M71.644 83.208 C 71.611 83.415,71.621 97.908,71.668 115.417 L 71.752 147.250 71.793 115.042 C 71.815 97.327,71.805 82.833,71.769 82.833 C 71.734 82.833,71.678 83.002,71.644 83.208 M36.771 83.590 C 36.713 83.739,36.685 98.123,36.707 115.555 L 36.748 147.250 36.832 115.333 C 36.922 81.287,36.926 83.185,36.771 83.590 M258.622 93.434 C 258.555 93.501,258.502 93.712,258.505 93.903 C 258.510 94.223,258.523 94.227,258.684 93.952 C 258.870 93.632,258.822 93.233,258.622 93.434 M322.042 122.958 C 325.044 122.984,329.956 122.984,332.958 122.958 C 335.960 122.933,333.504 122.912,327.500 122.912 C 321.496 122.912,319.040 122.933,322.042 122.958 M372.125 122.958 C 374.990 122.984,379.677 122.984,382.542 122.958 C 385.406 122.933,383.063 122.912,377.333 122.912 C 371.604 122.912,369.260 122.933,372.125 122.958 M245.716 147.291 C 246.431 147.322,247.556 147.322,248.216 147.290 C 248.876 147.259,248.292 147.233,246.917 147.233 C 245.542 147.234,245.001 147.259,245.716 147.291 " stroke="none" fill="#f47c84" fill-rule="evenodd"></path></g></svg>